<svg width="204" height="52" viewBox="0 0 204 52" fill="none" xmlns="http://www.w3.org/2000/svg">
<g clip-path="url(#clip0_591_265)">
<path d="M35.7074 41.681C47.1651 41.681 56.4534 32.3927 56.4534 20.935C56.4534 9.47727 47.1651 0.188965 35.7074 0.188965C24.2497 0.188965 14.9614 9.47727 14.9614 20.935C14.9614 32.3927 24.2497 41.681 35.7074 41.681Z" fill="white"/>
<path d="M35.7074 41.681C47.1651 41.681 56.4534 32.3927 56.4534 20.935C56.4534 9.47727 47.1651 0.188965 35.7074 0.188965C24.2497 0.188965 14.9614 9.47727 14.9614 20.935C14.9614 32.3927 24.2497 41.681 35.7074 41.681Z" fill="url(#paint0_linear_591_265)"/>
<path d="M68.9348 34.3297C68.8136 34.6796 68.5106 35.0012 67.96 35.2717C67.4079 35.543 66.6411 35.7449 65.6651 35.8662C63.7147 36.1088 61.0183 36.02 57.7562 35.6115C51.2385 34.7953 42.546 32.714 33.2288 29.5568C23.9116 26.3996 15.7549 22.7713 10.1005 19.4629C7.27053 17.807 5.08553 16.2418 3.69532 14.8672C2.9996 14.1793 2.51899 13.5547 2.25112 13.0056C1.98398 12.458 1.94399 12.0202 2.0652 11.6702C2.1864 11.3204 2.48943 10.9988 3.03996 10.7282C3.59201 10.457 4.35888 10.2552 5.33494 10.1337C7.2853 9.89118 9.98172 9.98002 13.2438 10.3885C19.7615 11.2047 28.454 13.286 37.7712 16.4432C47.0884 19.6004 55.2451 23.2287 60.8995 26.5371C63.7295 28.193 65.9144 29.7583 67.3047 31.1328C68.0004 31.8207 68.481 32.4453 68.7489 32.9944C69.016 33.542 69.056 33.9798 68.9348 34.3297Z" stroke="url(#paint1_linear_591_265)" stroke-width="3"/>
</g>
<path d="M77.3027 38L83.0156 8.82031L92.332 29.9141L101.982 8.82031L107.115 38H102.914L100.295 21.6172L92.2617 39.248L84.457 21.5996L81.5391 38H77.3027ZM124.746 20.8789H128.719V38H124.746V36.207C123.117 37.7305 121.365 38.4922 119.49 38.4922C117.123 38.4922 115.166 37.6367 113.619 35.9258C112.084 34.1797 111.316 32 111.316 29.3867C111.316 26.8203 112.084 24.6816 113.619 22.9707C115.154 21.2598 117.076 20.4043 119.385 20.4043C121.377 20.4043 123.164 21.2246 124.746 22.8652V20.8789ZM115.359 29.3867C115.359 31.0273 115.799 32.3633 116.678 33.3945C117.58 34.4375 118.717 34.959 120.088 34.959C121.553 34.959 122.736 34.4551 123.639 33.4473C124.541 32.4043 124.992 31.0801 124.992 29.4746C124.992 27.8691 124.541 26.5449 123.639 25.502C122.736 24.4824 121.564 23.9727 120.123 23.9727C118.764 23.9727 117.627 24.4883 116.713 25.5195C115.811 26.5625 115.359 27.8516 115.359 29.3867ZM133.711 20.8789H137.684V22.4609C139.066 21.0898 140.625 20.4043 142.359 20.4043C144.352 20.4043 145.904 21.0312 147.018 22.2852C147.979 23.3516 148.459 25.0918 148.459 27.5059V38H144.486V28.4375C144.486 26.75 144.252 25.584 143.783 24.9395C143.326 24.2832 142.494 23.9551 141.287 23.9551C139.975 23.9551 139.043 24.3887 138.492 25.2559C137.953 26.1113 137.684 27.6055 137.684 29.7383V38H133.711V20.8789ZM166.09 20.8789H170.062V38H166.09V36.207C164.461 37.7305 162.709 38.4922 160.834 38.4922C158.467 38.4922 156.51 37.6367 154.963 35.9258C153.428 34.1797 152.66 32 152.66 29.3867C152.66 26.8203 153.428 24.6816 154.963 22.9707C156.498 21.2598 158.42 20.4043 160.729 20.4043C162.721 20.4043 164.508 21.2246 166.09 22.8652V20.8789ZM156.703 29.3867C156.703 31.0273 157.143 32.3633 158.021 33.3945C158.924 34.4375 160.061 34.959 161.432 34.959C162.896 34.959 164.08 34.4551 164.982 33.4473C165.885 32.4043 166.336 31.0801 166.336 29.4746C166.336 27.8691 165.885 26.5449 164.982 25.502C164.08 24.4824 162.908 23.9727 161.467 23.9727C160.107 23.9727 158.971 24.4883 158.057 25.5195C157.154 26.5625 156.703 27.8516 156.703 29.3867ZM185.004 23.7969L181.734 25.5371C181.219 24.4824 180.58 23.9551 179.818 23.9551C179.455 23.9551 179.145 24.0781 178.887 24.3242C178.629 24.5586 178.5 24.8633 178.5 25.2383C178.5 25.8945 179.262 26.5449 180.785 27.1895C182.883 28.0918 184.295 28.9238 185.021 29.6855C185.748 30.4473 186.111 31.4727 186.111 32.7617C186.111 34.4141 185.502 35.7969 184.283 36.9102C183.1 37.9648 181.67 38.4922 179.994 38.4922C177.123 38.4922 175.09 37.0918 173.895 34.291L177.27 32.7266C177.738 33.5469 178.096 34.0684 178.342 34.291C178.822 34.7363 179.396 34.959 180.064 34.959C181.4 34.959 182.068 34.3496 182.068 33.1309C182.068 32.4277 181.553 31.7715 180.521 31.1621C180.123 30.9629 179.725 30.7695 179.326 30.582C178.928 30.3945 178.523 30.2012 178.113 30.002C176.965 29.4395 176.156 28.877 175.688 28.3145C175.09 27.5996 174.791 26.6797 174.791 25.5547C174.791 24.0664 175.301 22.8359 176.32 21.8633C177.363 20.8906 178.629 20.4043 180.117 20.4043C182.309 20.4043 183.938 21.5352 185.004 23.7969Z" fill="white"/>
<defs>
<linearGradient id="paint0_linear_591_265" x1="35.7074" y1="0.188965" x2="35.7074" y2="41.681" gradientUnits="userSpaceOnUse">
<stop stop-color="#FD91FF"/>
<stop offset="0.34375" stop-color="#A0A8FF"/>
<stop offset="0.947005" stop-color="#C9F2FF"/>
</linearGradient>
<linearGradient id="paint1_linear_591_265" x1="36.4049" y1="29.1872" x2="39.8422" y2="19.1474" gradientUnits="userSpaceOnUse">
<stop stop-color="#F3FCFF"/>
<stop offset="0.47974" stop-color="#654BAE"/>
<stop offset="1" stop-color="#303261" stop-opacity="0"/>
</linearGradient>
<clipPath id="clip0_591_265">
<rect width="71" height="42" fill="white"/>
</clipPath>
</defs>
</svg>
