<svg width="71" height="42" viewBox="0 0 71 42" fill="none" xmlns="http://www.w3.org/2000/svg">
<path d="M35.7074 41.681C47.1651 41.681 56.4534 32.3927 56.4534 20.935C56.4534 9.47727 47.1651 0.188965 35.7074 0.188965C24.2497 0.188965 14.9614 9.47727 14.9614 20.935C14.9614 32.3927 24.2497 41.681 35.7074 41.681Z" fill="white"/>
<path d="M35.7074 41.681C47.1651 41.681 56.4534 32.3927 56.4534 20.935C56.4534 9.47727 47.1651 0.188965 35.7074 0.188965C24.2497 0.188965 14.9614 9.47727 14.9614 20.935C14.9614 32.3927 24.2497 41.681 35.7074 41.681Z" fill="url(#paint0_linear_552_274)"/>
<path d="M68.9348 34.3297C68.8136 34.6796 68.5106 35.0012 67.96 35.2717C67.4079 35.543 66.6411 35.7449 65.6651 35.8662C63.7147 36.1088 61.0183 36.02 57.7562 35.6115C51.2385 34.7953 42.546 32.714 33.2288 29.5568C23.9116 26.3996 15.7549 22.7713 10.1005 19.4629C7.27053 17.807 5.08553 16.2418 3.69532 14.8672C2.9996 14.1793 2.51899 13.5547 2.25112 13.0056C1.98398 12.458 1.94399 12.0202 2.0652 11.6702C2.1864 11.3204 2.48943 10.9988 3.03996 10.7282C3.59201 10.457 4.35888 10.2552 5.33494 10.1337C7.2853 9.89117 9.98172 9.98001 13.2438 10.3885C19.7615 11.2047 28.454 13.286 37.7712 16.4432C47.0884 19.6004 55.2451 23.2287 60.8995 26.5371C63.7295 28.193 65.9144 29.7583 67.3047 31.1328C68.0004 31.8207 68.481 32.4453 68.7489 32.9944C69.016 33.542 69.056 33.9798 68.9348 34.3297Z" stroke="url(#paint1_linear_552_274)" stroke-width="3"/>
<defs>
<linearGradient id="paint0_linear_552_274" x1="35.7074" y1="0.188965" x2="35.7074" y2="41.681" gradientUnits="userSpaceOnUse">
<stop stop-color="#FD91FF"/>
<stop offset="0.34375" stop-color="#A0A8FF"/>
<stop offset="0.947005" stop-color="#C9F2FF"/>
</linearGradient>
<linearGradient id="paint1_linear_552_274" x1="36.4049" y1="29.1872" x2="39.8422" y2="19.1474" gradientUnits="userSpaceOnUse">
<stop stop-color="#F3FCFF"/>
<stop offset="0.47974" stop-color="#654BAE"/>
<stop offset="1" stop-color="#303261" stop-opacity="0"/>
</linearGradient>
</defs>
</svg>
