<svg width="982" height="51" viewBox="0 0 982 51" fill="none" xmlns="http://www.w3.org/2000/svg">
<path d="M67.5391 17.3789V20.6133C65.9609 19.293 64.3281 18.6328 62.6406 18.6328C60.7812 18.6328 59.2148 19.3008 57.9414 20.6367C56.6602 21.9648 56.0195 23.5898 56.0195 25.5117C56.0195 27.4102 56.6602 29.0117 57.9414 30.3164C59.2227 31.6211 60.793 32.2734 62.6523 32.2734C63.6133 32.2734 64.4297 32.1172 65.1016 31.8047C65.4766 31.6484 65.8633 31.4375 66.2617 31.1719C66.668 30.9062 67.0938 30.5859 67.5391 30.2109V33.5039C65.9766 34.3867 64.3359 34.8281 62.6172 34.8281C60.0312 34.8281 57.8242 33.9258 55.9961 32.1211C54.1758 30.3008 53.2656 28.1055 53.2656 25.5352C53.2656 23.2305 54.0273 21.1758 55.5508 19.3711C57.4258 17.1602 59.8516 16.0547 62.8281 16.0547C64.4531 16.0547 66.0234 16.4961 67.5391 17.3789ZM69.9531 28.7109C69.9531 27.0625 70.543 25.6602 71.7227 24.5039C72.9023 23.3477 74.3398 22.7695 76.0352 22.7695C77.7383 22.7695 79.1836 23.3516 80.3711 24.5156C81.543 25.6797 82.1289 27.1094 82.1289 28.8047C82.1289 30.5156 81.5391 31.9492 80.3594 33.1055C79.1719 34.2539 77.7148 34.8281 75.9883 34.8281C74.2773 34.8281 72.8438 34.2422 71.6875 33.0703C70.5312 31.9141 69.9531 30.4609 69.9531 28.7109ZM72.6484 28.7578C72.6484 29.8984 72.9531 30.8008 73.5625 31.4648C74.1875 32.1367 75.0117 32.4727 76.0352 32.4727C77.0664 32.4727 77.8906 32.1406 78.5078 31.4766C79.125 30.8125 79.4336 29.9258 79.4336 28.8164C79.4336 27.707 79.125 26.8203 78.5078 26.1562C77.8828 25.4844 77.0586 25.1484 76.0352 25.1484C75.0273 25.1484 74.2109 25.4844 73.5859 26.1562C72.9609 26.8281 72.6484 27.6953 72.6484 28.7578ZM84.9297 23.0859H87.5664V24.1406C88.0742 23.6094 88.5078 23.25 88.8672 23.0625C89.25 22.8672 89.7305 22.7695 90.3086 22.7695C91.5977 22.7695 92.6172 23.332 93.3672 24.457C94.1953 23.332 95.3164 22.7695 96.7305 22.7695C99.3008 22.7695 100.586 24.3281 100.586 27.4453V34.5H97.9375V28.1602C97.9375 27.0664 97.8047 26.293 97.5391 25.8398C97.2656 25.3789 96.8164 25.1484 96.1914 25.1484C95.4648 25.1484 94.9336 25.4219 94.5977 25.9688C94.2695 26.5156 94.1055 27.3945 94.1055 28.6055V34.5H91.457V28.1953C91.457 26.1641 90.8711 25.1484 89.6992 25.1484C88.957 25.1484 88.4141 25.4258 88.0703 25.9805C87.7344 26.5352 87.5664 27.4102 87.5664 28.6055V34.5H84.9297V23.0859ZM103.914 23.0859H106.551V24.1406C107.059 23.6094 107.492 23.25 107.852 23.0625C108.234 22.8672 108.715 22.7695 109.293 22.7695C110.582 22.7695 111.602 23.332 112.352 24.457C113.18 23.332 114.301 22.7695 115.715 22.7695C118.285 22.7695 119.57 24.3281 119.57 27.4453V34.5H116.922V28.1602C116.922 27.0664 116.789 26.293 116.523 25.8398C116.25 25.3789 115.801 25.1484 115.176 25.1484C114.449 25.1484 113.918 25.4219 113.582 25.9688C113.254 26.5156 113.09 27.3945 113.09 28.6055V34.5H110.441V28.1953C110.441 26.1641 109.855 25.1484 108.684 25.1484C107.941 25.1484 107.398 25.4258 107.055 25.9805C106.719 26.5352 106.551 27.4102 106.551 28.6055V34.5H103.914V23.0859ZM125.535 23.0859V29.6367C125.535 31.5273 126.281 32.4727 127.773 32.4727C129.266 32.4727 130.012 31.5273 130.012 29.6367V23.0859H132.648V29.6953C132.648 30.6094 132.535 31.3984 132.309 32.0625C132.09 32.6562 131.711 33.1914 131.172 33.668C130.281 34.4414 129.148 34.8281 127.773 34.8281C126.406 34.8281 125.277 34.4414 124.387 33.668C123.84 33.1914 123.453 32.6562 123.227 32.0625C123.008 31.5312 122.898 30.7422 122.898 29.6953V23.0859H125.535ZM135.977 23.0859H138.625V24.1406C139.547 23.2266 140.586 22.7695 141.742 22.7695C143.07 22.7695 144.105 23.1875 144.848 24.0234C145.488 24.7344 145.809 25.8945 145.809 27.5039V34.5H143.16V28.125C143.16 27 143.004 26.2227 142.691 25.793C142.387 25.3555 141.832 25.1367 141.027 25.1367C140.152 25.1367 139.531 25.4258 139.164 26.0039C138.805 26.5742 138.625 27.5703 138.625 28.9922V34.5H135.977V23.0859ZM151.785 23.0859V34.5H149.148V23.0859H151.785ZM148.75 18.3398C148.75 17.8789 148.918 17.4805 149.254 17.1445C149.59 16.8086 149.992 16.6406 150.461 16.6406C150.938 16.6406 151.344 16.8086 151.68 17.1445C152.016 17.4727 152.184 17.875 152.184 18.3516C152.184 18.8281 152.016 19.2344 151.68 19.5703C151.352 19.9062 150.949 20.0742 150.473 20.0742C149.996 20.0742 149.59 19.9062 149.254 19.5703C148.918 19.2344 148.75 18.8242 148.75 18.3398ZM157.844 25.5469V34.5H155.207V25.5469H154.082V23.0859H155.207V18.9023H157.844V23.0859H159.895V25.5469H157.844ZM165.285 32.3789L160.152 23.0859H163.211L166.703 29.6484L169.961 23.0859H172.938L163.844 40.7109H160.832L165.285 32.3789Z" fill="white"/>
<path d="M11.377 38.1605C11.6301 38.4137 11.8879 38.6527 12.1504 38.8871C13.0785 38.7184 14.1613 38.3762 15.3707 37.8512C11.4848 35.1137 8.93945 30.5949 8.93945 25.4949C8.93945 17.1652 15.7129 10.3918 24.0426 10.3918C29.1145 10.3918 33.6051 12.9043 36.3473 16.748C36.8629 15.534 37.191 14.423 37.3316 13.4809C37.1301 13.2605 36.9238 13.0402 36.7129 12.8293C35.0676 11.184 33.1504 9.89492 31.0176 8.99023C28.8098 8.05742 26.4613 7.58398 24.0426 7.58398C21.6238 7.58398 19.2801 8.05742 17.0676 8.99023C14.9348 9.89492 13.0176 11.184 11.3723 12.8293C9.72695 14.4746 8.43789 16.3918 7.5332 18.5246C6.60039 20.7324 6.12695 23.0809 6.12695 25.4996C6.12695 27.9184 6.60039 30.2621 7.5332 32.4746C8.44258 34.598 9.73633 36.5152 11.377 38.1605ZM40.6645 20.5074C40.2051 21.5012 39.6566 22.523 39.0285 23.5637C39.1082 24.1965 39.1504 24.8387 39.1504 25.4902C39.1504 33.8199 32.377 40.5934 24.0473 40.5934C23.4098 40.5934 22.7863 40.5512 22.1676 40.4762C21.0801 41.1371 20.0113 41.7137 18.9754 42.1965C18.7598 42.2949 18.5488 42.3887 18.3379 42.4777C20.1707 43.0918 22.0879 43.4059 24.0473 43.4059C26.466 43.4059 28.8098 42.9324 31.0223 41.9996C33.1551 41.0949 35.0723 39.8059 36.7176 38.1605C38.3629 36.5152 39.652 34.598 40.5566 32.4652C41.4895 30.2574 41.9629 27.909 41.9629 25.4902C41.9629 23.5074 41.6441 21.5668 41.0113 19.7152C40.9035 19.9777 40.7863 20.2402 40.6645 20.5074Z" fill="#E6E6E6"/>
<path d="M39.8111 9.66626C39.0986 8.95376 37.758 8.13814 35.4283 8.29752C34.2705 8.3772 32.9721 8.68658 31.5611 9.22095C32.733 9.76001 33.8346 10.4256 34.8564 11.1991C35.283 11.1241 35.6768 11.0866 36.0283 11.0866C36.8393 11.0866 37.4486 11.2788 37.8236 11.6491C38.7893 12.6147 38.4986 15.1553 37.0549 18.2772C35.3486 21.9663 32.2877 26.1194 28.4346 29.9725C21.5674 36.8491 15.1502 39.9288 11.9064 39.9288C11.0955 39.9288 10.4861 39.7366 10.1111 39.3663C9.55332 38.8085 9.40332 37.7116 9.69394 36.221C8.92988 35.1991 8.27832 34.1022 7.74394 32.935C7.17207 34.4116 6.84394 35.7663 6.75957 36.971C6.59551 39.3006 7.41113 40.6413 8.12832 41.3538C8.77988 42.0053 9.95176 42.7413 11.9252 42.7413C12.1127 42.7413 12.3096 42.7366 12.5111 42.7225C14.0814 42.6147 15.9002 42.085 17.9205 41.1522C21.9049 39.31 26.3439 36.0475 30.4268 31.9694C34.5096 27.8913 37.7674 23.4475 39.6096 19.4631C40.5424 17.4428 41.0721 15.6241 41.1799 14.0538C41.3439 11.7194 40.5283 10.3788 39.8111 9.66626Z" fill="#E6E6E6"/>
<path d="M12.1309 25.5234C12.1309 25.8964 12.279 26.2541 12.5427 26.5178C12.8065 26.7815 13.1641 26.9297 13.5371 26.9297C13.9101 26.9297 14.2678 26.7815 14.5315 26.5178C14.7952 26.2541 14.9434 25.8964 14.9434 25.5234C14.9434 25.1505 14.7952 24.7928 14.5315 24.5291C14.2678 24.2653 13.9101 24.1172 13.5371 24.1172C13.1641 24.1172 12.8065 24.2653 12.5427 24.5291C12.279 24.7928 12.1309 25.1505 12.1309 25.5234Z" fill="#E6E6E6"/>
<path d="M20.5029 23.3906C20.5029 23.7636 20.6511 24.1213 20.9148 24.385C21.1785 24.6487 21.5362 24.7969 21.9092 24.7969C22.2821 24.7969 22.6398 24.6487 22.9035 24.385C23.1673 24.1213 23.3154 23.7636 23.3154 23.3906C23.3154 23.0177 23.1673 22.66 22.9035 22.3963C22.6398 22.1325 22.2821 21.9844 21.9092 21.9844C21.5362 21.9844 21.1785 22.1325 20.9148 22.3963C20.6511 22.66 20.5029 23.0177 20.5029 23.3906Z" fill="#E6E6E6"/>
<path d="M21.6562 15.0371C21.6562 15.6587 21.9032 16.2549 22.3427 16.6944C22.7823 17.1339 23.3784 17.3809 24 17.3809C24.6216 17.3809 25.2177 17.1339 25.6573 16.6944C26.0968 16.2549 26.3438 15.6587 26.3438 15.0371C26.3438 14.4155 26.0968 13.8194 25.6573 13.3798C25.2177 12.9403 24.6216 12.6934 24 12.6934C23.3784 12.6934 22.7823 12.9403 22.3427 13.3798C21.9032 13.8194 21.6563 14.4155 21.6562 15.0371Z" fill="#E6E6E6"/>
<path d="M276.859 20.0067C276.674 10.1713 269.05 2.22656 259.688 2.22656H258.312C248.95 2.22656 241.326 10.1713 241.142 20.0053C239.497 20.9582 238.375 22.7168 238.375 24.7504V27.5004C238.375 30.5337 240.842 33.0004 243.875 33.0004C246.908 33.0004 249.375 30.5337 249.375 27.5004V24.7504C249.373 23.3019 248.8 21.9127 247.78 20.884C246.76 19.8554 245.376 19.2704 243.927 19.2559C244.465 11.2878 250.703 4.97656 258.312 4.97656H259.688C267.298 4.97656 273.535 11.2878 274.073 19.2559C272.624 19.2704 271.24 19.8554 270.22 20.884C269.2 21.9127 268.627 23.3019 268.625 24.7504V27.5004C268.625 29.9837 270.289 32.0627 272.552 32.7433C270.509 35.432 267.593 37.3236 264.305 38.0921C264.078 37.4113 263.643 36.819 263.061 36.3989C262.479 35.9787 261.78 35.7519 261.062 35.7504C260.151 35.7504 259.276 36.1126 258.632 36.7573C257.987 37.4019 257.625 38.2763 257.625 39.1879C257.625 40.0996 257.987 40.974 258.632 41.6186C259.276 42.2633 260.151 42.6254 261.062 42.6254C261.648 42.6247 262.224 42.4737 262.734 42.187C263.245 41.9003 263.673 41.4874 263.979 40.9878C266.457 40.5543 268.81 39.5854 270.875 38.1486C272.94 36.7118 274.667 34.8418 275.934 32.6691C278.077 31.9183 279.625 29.8971 279.625 27.5004V24.7504C279.625 22.7168 278.503 20.9582 276.859 20.0067ZM246.625 24.7504V27.5004C246.625 29.0171 245.392 30.2504 243.875 30.2504C242.358 30.2504 241.125 29.0171 241.125 27.5004V24.7504C241.125 23.2338 242.358 22.0004 243.875 22.0004C245.392 22.0004 246.625 23.2338 246.625 24.7504ZM276.875 27.5004C276.875 28.9744 275.706 30.1721 274.249 30.2381L274.141 30.1872C274.132 30.2092 274.117 30.2271 274.107 30.2477C273.381 30.243 272.687 29.9515 272.175 29.4369C271.663 28.9223 271.376 28.2262 271.375 27.5004V24.7504C271.375 23.2338 272.608 22.0004 274.125 22.0004C275.642 22.0004 276.875 23.2338 276.875 24.7504V27.5004Z" fill="#E6E6E6"/>
<path d="M308.539 14.8789V18.1133C306.961 16.793 305.328 16.1328 303.641 16.1328C301.781 16.1328 300.215 16.8008 298.941 18.1367C297.66 19.4648 297.02 21.0898 297.02 23.0117C297.02 24.9102 297.66 26.5117 298.941 27.8164C300.223 29.1211 301.793 29.7734 303.652 29.7734C304.613 29.7734 305.43 29.6172 306.102 29.3047C306.477 29.1484 306.863 28.9375 307.262 28.6719C307.668 28.4062 308.094 28.0859 308.539 27.7109V31.0039C306.977 31.8867 305.336 32.3281 303.617 32.3281C301.031 32.3281 298.824 31.4258 296.996 29.6211C295.176 27.8008 294.266 25.6055 294.266 23.0352C294.266 20.7305 295.027 18.6758 296.551 16.8711C298.426 14.6602 300.852 13.5547 303.828 13.5547C305.453 13.5547 307.023 13.9961 308.539 14.8789ZM314.129 20.5859V27.1367C314.129 29.0273 314.875 29.9727 316.367 29.9727C317.859 29.9727 318.605 29.0273 318.605 27.1367V20.5859H321.242V27.1953C321.242 28.1094 321.129 28.8984 320.902 29.5625C320.684 30.1562 320.305 30.6914 319.766 31.168C318.875 31.9414 317.742 32.3281 316.367 32.3281C315 32.3281 313.871 31.9414 312.98 31.168C312.434 30.6914 312.047 30.1562 311.82 29.5625C311.602 29.0312 311.492 28.2422 311.492 27.1953V20.5859H314.129ZM331.203 22.5312L329.023 23.6914C328.68 22.9883 328.254 22.6367 327.746 22.6367C327.504 22.6367 327.297 22.7188 327.125 22.8828C326.953 23.0391 326.867 23.2422 326.867 23.4922C326.867 23.9297 327.375 24.3633 328.391 24.793C329.789 25.3945 330.73 25.9492 331.215 26.457C331.699 26.9648 331.941 27.6484 331.941 28.5078C331.941 29.6094 331.535 30.5312 330.723 31.2734C329.934 31.9766 328.98 32.3281 327.863 32.3281C325.949 32.3281 324.594 31.3945 323.797 29.5273L326.047 28.4844C326.359 29.0312 326.598 29.3789 326.762 29.5273C327.082 29.8242 327.465 29.9727 327.91 29.9727C328.801 29.9727 329.246 29.5664 329.246 28.7539C329.246 28.2852 328.902 27.8477 328.215 27.4414C327.949 27.3086 327.684 27.1797 327.418 27.0547C327.152 26.9297 326.883 26.8008 326.609 26.668C325.844 26.293 325.305 25.918 324.992 25.543C324.594 25.0664 324.395 24.4531 324.395 23.7031C324.395 22.7109 324.734 21.8906 325.414 21.2422C326.109 20.5938 326.953 20.2695 327.945 20.2695C329.406 20.2695 330.492 21.0234 331.203 22.5312ZM337.039 23.0469V32H334.402V23.0469H333.277V20.5859H334.402V16.4023H337.039V20.5859H339.09V23.0469H337.039ZM340.508 26.2109C340.508 24.5625 341.098 23.1602 342.277 22.0039C343.457 20.8477 344.895 20.2695 346.59 20.2695C348.293 20.2695 349.738 20.8516 350.926 22.0156C352.098 23.1797 352.684 24.6094 352.684 26.3047C352.684 28.0156 352.094 29.4492 350.914 30.6055C349.727 31.7539 348.27 32.3281 346.543 32.3281C344.832 32.3281 343.398 31.7422 342.242 30.5703C341.086 29.4141 340.508 27.9609 340.508 26.2109ZM343.203 26.2578C343.203 27.3984 343.508 28.3008 344.117 28.9648C344.742 29.6367 345.566 29.9727 346.59 29.9727C347.621 29.9727 348.445 29.6406 349.062 28.9766C349.68 28.3125 349.988 27.4258 349.988 26.3164C349.988 25.207 349.68 24.3203 349.062 23.6562C348.438 22.9844 347.613 22.6484 346.59 22.6484C345.582 22.6484 344.766 22.9844 344.141 23.6562C343.516 24.3281 343.203 25.1953 343.203 26.2578ZM355.484 20.5859H358.121V21.6406C358.629 21.1094 359.062 20.75 359.422 20.5625C359.805 20.3672 360.285 20.2695 360.863 20.2695C362.152 20.2695 363.172 20.832 363.922 21.957C364.75 20.832 365.871 20.2695 367.285 20.2695C369.855 20.2695 371.141 21.8281 371.141 24.9453V32H368.492V25.6602C368.492 24.5664 368.359 23.793 368.094 23.3398C367.82 22.8789 367.371 22.6484 366.746 22.6484C366.02 22.6484 365.488 22.9219 365.152 23.4688C364.824 24.0156 364.66 24.8945 364.66 26.1055V32H362.012V25.6953C362.012 23.6641 361.426 22.6484 360.254 22.6484C359.512 22.6484 358.969 22.9258 358.625 23.4805C358.289 24.0352 358.121 24.9102 358.121 26.1055V32H355.484V20.5859ZM384.863 26.9141H376.684C376.754 27.8516 377.059 28.5977 377.598 29.1523C378.137 29.6992 378.828 29.9727 379.672 29.9727C380.328 29.9727 380.871 29.8164 381.301 29.5039C381.723 29.1914 382.203 28.6133 382.742 27.7695L384.969 29.0117C384.625 29.5977 384.262 30.1016 383.879 30.5234C383.496 30.9375 383.086 31.2812 382.648 31.5547C382.211 31.8203 381.738 32.0156 381.23 32.1406C380.723 32.2656 380.172 32.3281 379.578 32.3281C377.875 32.3281 376.508 31.7812 375.477 30.6875C374.445 29.5859 373.93 28.125 373.93 26.3047C373.93 24.5 374.43 23.0391 375.43 21.9219C376.438 20.8203 377.773 20.2695 379.438 20.2695C381.117 20.2695 382.445 20.8047 383.422 21.875C384.391 22.9375 384.875 24.4102 384.875 26.293L384.863 26.9141ZM382.156 24.7578C381.789 23.3516 380.902 22.6484 379.496 22.6484C379.176 22.6484 378.875 22.6992 378.594 22.8008C378.312 22.8945 378.055 23.0352 377.82 23.2227C377.594 23.4023 377.398 23.6211 377.234 23.8789C377.07 24.1367 376.945 24.4297 376.859 24.7578H382.156ZM387.758 20.5859H390.395V21.6055C390.879 21.0977 391.309 20.75 391.684 20.5625C392.066 20.3672 392.52 20.2695 393.043 20.2695C393.738 20.2695 394.465 20.4961 395.223 20.9492L394.016 23.3633C393.516 23.0039 393.027 22.8242 392.551 22.8242C391.113 22.8242 390.395 23.9102 390.395 26.082V32H387.758V20.5859ZM414.875 16.6016L412.66 17.9141C412.246 17.1953 411.852 16.7266 411.477 16.5078C411.086 16.2578 410.582 16.1328 409.965 16.1328C409.207 16.1328 408.578 16.3477 408.078 16.7773C407.578 17.1992 407.328 17.7305 407.328 18.3711C407.328 19.2539 407.984 19.9648 409.297 20.5039L411.102 21.2422C412.57 21.8359 413.645 22.5625 414.324 23.4219C415.004 24.2734 415.344 25.3203 415.344 26.5625C415.344 28.2266 414.789 29.6016 413.68 30.6875C412.562 31.7812 411.176 32.3281 409.52 32.3281C407.949 32.3281 406.652 31.8633 405.629 30.9336C404.621 30.0039 403.992 28.6953 403.742 27.0078L406.508 26.3984C406.633 27.4609 406.852 28.1953 407.164 28.6016C407.727 29.3828 408.547 29.7734 409.625 29.7734C410.477 29.7734 411.184 29.4883 411.746 28.918C412.309 28.3477 412.59 27.625 412.59 26.75C412.59 26.3984 412.539 26.0781 412.438 25.7891C412.344 25.4922 412.191 25.2227 411.98 24.9805C411.777 24.7305 411.512 24.5 411.184 24.2891C410.855 24.0703 410.465 23.8633 410.012 23.668L408.266 22.9414C405.789 21.8945 404.551 20.3633 404.551 18.3477C404.551 16.9883 405.07 15.8516 406.109 14.9375C407.148 14.0156 408.441 13.5547 409.988 13.5547C412.074 13.5547 413.703 14.5703 414.875 16.6016ZM420.77 20.5859V27.1367C420.77 29.0273 421.516 29.9727 423.008 29.9727C424.5 29.9727 425.246 29.0273 425.246 27.1367V20.5859H427.883V27.1953C427.883 28.1094 427.77 28.8984 427.543 29.5625C427.324 30.1562 426.945 30.6914 426.406 31.168C425.516 31.9414 424.383 32.3281 423.008 32.3281C421.641 32.3281 420.512 31.9414 419.621 31.168C419.074 30.6914 418.688 30.1562 418.461 29.5625C418.242 29.0312 418.133 28.2422 418.133 27.1953V20.5859H420.77ZM433.848 38.2109H431.211V20.5859H433.848V21.8281C434.887 20.7891 436.066 20.2695 437.387 20.2695C438.957 20.2695 440.25 20.8477 441.266 22.0039C442.297 23.1523 442.812 24.6016 442.812 26.3516C442.812 28.0625 442.301 29.4883 441.277 30.6289C440.262 31.7617 438.98 32.3281 437.434 32.3281C436.098 32.3281 434.902 31.793 433.848 30.7227V38.2109ZM440.117 26.3633C440.117 25.2695 439.82 24.3789 439.227 23.6914C438.625 22.9961 437.867 22.6484 436.953 22.6484C435.984 22.6484 435.199 22.9844 434.598 23.6562C433.996 24.3281 433.695 25.2109 433.695 26.3047C433.695 27.375 433.996 28.2578 434.598 28.9531C435.191 29.6328 435.973 29.9727 436.941 29.9727C437.855 29.9727 438.609 29.6289 439.203 28.9414C439.812 28.2539 440.117 27.3945 440.117 26.3633ZM448.238 38.2109H445.602V20.5859H448.238V21.8281C449.277 20.7891 450.457 20.2695 451.777 20.2695C453.348 20.2695 454.641 20.8477 455.656 22.0039C456.688 23.1523 457.203 24.6016 457.203 26.3516C457.203 28.0625 456.691 29.4883 455.668 30.6289C454.652 31.7617 453.371 32.3281 451.824 32.3281C450.488 32.3281 449.293 31.793 448.238 30.7227V38.2109ZM454.508 26.3633C454.508 25.2695 454.211 24.3789 453.617 23.6914C453.016 22.9961 452.258 22.6484 451.344 22.6484C450.375 22.6484 449.59 22.9844 448.988 23.6562C448.387 24.3281 448.086 25.2109 448.086 26.3047C448.086 27.375 448.387 28.2578 448.988 28.9531C449.582 29.6328 450.363 29.9727 451.332 29.9727C452.246 29.9727 453 29.6289 453.594 28.9414C454.203 28.2539 454.508 27.3945 454.508 26.3633ZM459.453 26.2109C459.453 24.5625 460.043 23.1602 461.223 22.0039C462.402 20.8477 463.84 20.2695 465.535 20.2695C467.238 20.2695 468.684 20.8516 469.871 22.0156C471.043 23.1797 471.629 24.6094 471.629 26.3047C471.629 28.0156 471.039 29.4492 469.859 30.6055C468.672 31.7539 467.215 32.3281 465.488 32.3281C463.777 32.3281 462.344 31.7422 461.188 30.5703C460.031 29.4141 459.453 27.9609 459.453 26.2109ZM462.148 26.2578C462.148 27.3984 462.453 28.3008 463.062 28.9648C463.688 29.6367 464.512 29.9727 465.535 29.9727C466.566 29.9727 467.391 29.6406 468.008 28.9766C468.625 28.3125 468.934 27.4258 468.934 26.3164C468.934 25.207 468.625 24.3203 468.008 23.6562C467.383 22.9844 466.559 22.6484 465.535 22.6484C464.527 22.6484 463.711 22.9844 463.086 23.6562C462.461 24.3281 462.148 25.1953 462.148 26.2578ZM474.43 20.5859H477.066V21.6055C477.551 21.0977 477.98 20.75 478.355 20.5625C478.738 20.3672 479.191 20.2695 479.715 20.2695C480.41 20.2695 481.137 20.4961 481.895 20.9492L480.688 23.3633C480.188 23.0039 479.699 22.8242 479.223 22.8242C477.785 22.8242 477.066 23.9102 477.066 26.082V32H474.43V20.5859ZM486.992 23.0469V32H484.355V23.0469H483.23V20.5859H484.355V16.4023H486.992V20.5859H489.043V23.0469H486.992Z" fill="white"/>
<path d="M590.874 16.56C587.454 9.738 580.606 5.5 573 5.5C561.972 5.5 553 14.472 553 25.5C553 36.528 561.972 45.5 573 45.5C580.606 45.5 587.454 41.262 590.874 34.44C591.103 33.9829 591.149 33.4555 591.001 32.9659C590.853 32.4764 590.524 32.0621 590.08 31.808L579.034 25.5L590.078 19.194C591 18.666 591.35 17.51 590.874 16.56ZM574.008 23.764C573.702 23.9386 573.447 24.1912 573.27 24.4961C573.092 24.801 572.999 25.1473 572.999 25.5C572.999 25.8527 573.092 26.199 573.27 26.5039C573.447 26.8088 573.702 27.0614 574.008 27.236L586.354 34.286C584.906 36.5065 582.926 38.3296 580.593 39.5895C578.261 40.8495 575.651 41.5062 573 41.5C564.178 41.5 557 34.322 557 25.5C557 16.678 564.178 9.5 573 9.5C575.651 9.49375 578.261 10.1503 580.593 11.4098C582.925 12.6694 584.906 14.492 586.354 16.712L574.008 23.764Z" fill="#E6E6E6"/>
<path d="M569 16.5C569 16.894 569.078 17.2841 569.228 17.648C569.379 18.012 569.6 18.3427 569.879 18.6213C570.157 18.8999 570.488 19.1209 570.852 19.2716C571.216 19.4224 571.606 19.5 572 19.5C572.394 19.5 572.784 19.4224 573.148 19.2716C573.512 19.1209 573.843 18.8999 574.121 18.6213C574.4 18.3427 574.621 18.012 574.772 17.648C574.922 17.2841 575 16.894 575 16.5C575 15.7044 574.684 14.9413 574.121 14.3787C573.559 13.8161 572.796 13.5 572 13.5C571.204 13.5 570.441 13.8161 569.879 14.3787C569.316 14.9413 569 15.7044 569 16.5Z" fill="#E6E6E6"/>
<path d="M620.473 25.0781H627.949V25.6758C627.949 27.0352 627.789 28.2383 627.469 29.2852C627.156 30.2539 626.629 31.1602 625.887 32.0039C624.207 33.8945 622.07 34.8398 619.477 34.8398C616.945 34.8398 614.777 33.9258 612.973 32.0977C611.168 30.2617 610.266 28.0586 610.266 25.4883C610.266 22.8633 611.184 20.6367 613.02 18.8086C614.855 16.9727 617.09 16.0547 619.723 16.0547C621.137 16.0547 622.457 16.3438 623.684 16.9219C624.855 17.5 626.008 18.4375 627.141 19.7344L625.195 21.5977C623.711 19.6211 621.902 18.6328 619.77 18.6328C617.855 18.6328 616.25 19.293 614.953 20.6133C613.656 21.9102 613.008 23.5352 613.008 25.4883C613.008 27.5039 613.73 29.1641 615.176 30.4688C616.527 31.6797 617.992 32.2852 619.57 32.2852C620.914 32.2852 622.121 31.832 623.191 30.9258C624.262 30.0117 624.859 28.918 624.984 27.6445H620.473V25.0781ZM639.305 23.0859H641.953V34.5H639.305V33.3047C638.219 34.3203 637.051 34.8281 635.801 34.8281C634.223 34.8281 632.918 34.2578 631.887 33.1172C630.863 31.9531 630.352 30.5 630.352 28.7578C630.352 27.0469 630.863 25.6211 631.887 24.4805C632.91 23.3398 634.191 22.7695 635.73 22.7695C637.059 22.7695 638.25 23.3164 639.305 24.4102V23.0859ZM633.047 28.7578C633.047 29.8516 633.34 30.7422 633.926 31.4297C634.527 32.125 635.285 32.4727 636.199 32.4727C637.176 32.4727 637.965 32.1367 638.566 31.4648C639.168 30.7695 639.469 29.8867 639.469 28.8164C639.469 27.7461 639.168 26.8633 638.566 26.168C637.965 25.4883 637.184 25.1484 636.223 25.1484C635.316 25.1484 634.559 25.4922 633.949 26.1797C633.348 26.875 633.047 27.7344 633.047 28.7578ZM645.281 23.0859H647.918V24.1406C648.426 23.6094 648.859 23.25 649.219 23.0625C649.602 22.8672 650.082 22.7695 650.66 22.7695C651.949 22.7695 652.969 23.332 653.719 24.457C654.547 23.332 655.668 22.7695 657.082 22.7695C659.652 22.7695 660.938 24.3281 660.938 27.4453V34.5H658.289V28.1602C658.289 27.0664 658.156 26.293 657.891 25.8398C657.617 25.3789 657.168 25.1484 656.543 25.1484C655.816 25.1484 655.285 25.4219 654.949 25.9688C654.621 26.5156 654.457 27.3945 654.457 28.6055V34.5H651.809V28.1953C651.809 26.1641 651.223 25.1484 650.051 25.1484C649.309 25.1484 648.766 25.4258 648.422 25.9805C648.086 26.5352 647.918 27.4102 647.918 28.6055V34.5H645.281V23.0859ZM674.66 29.4141H666.48C666.551 30.3516 666.855 31.0977 667.395 31.6523C667.934 32.1992 668.625 32.4727 669.469 32.4727C670.125 32.4727 670.668 32.3164 671.098 32.0039C671.52 31.6914 672 31.1133 672.539 30.2695L674.766 31.5117C674.422 32.0977 674.059 32.6016 673.676 33.0234C673.293 33.4375 672.883 33.7812 672.445 34.0547C672.008 34.3203 671.535 34.5156 671.027 34.6406C670.52 34.7656 669.969 34.8281 669.375 34.8281C667.672 34.8281 666.305 34.2812 665.273 33.1875C664.242 32.0859 663.727 30.625 663.727 28.8047C663.727 27 664.227 25.5391 665.227 24.4219C666.234 23.3203 667.57 22.7695 669.234 22.7695C670.914 22.7695 672.242 23.3047 673.219 24.375C674.188 25.4375 674.672 26.9102 674.672 28.793L674.66 29.4141ZM671.953 27.2578C671.586 25.8516 670.699 25.1484 669.293 25.1484C668.973 25.1484 668.672 25.1992 668.391 25.3008C668.109 25.3945 667.852 25.5352 667.617 25.7227C667.391 25.9023 667.195 26.1211 667.031 26.3789C666.867 26.6367 666.742 26.9297 666.656 27.2578H671.953Z" fill="white"/>
<path d="M770.73 14.8045C769.674 12.0855 767.631 9.86514 765.01 8.5873C759.202 5.6789 754.133 8.9217 752.25 11.0645L751.286 12.0281C749.992 10.6729 745.342 6.3873 739.054 8.6445C737.551 9.188 736.179 10.0433 735.03 11.1542C733.88 12.2651 732.978 13.6065 732.384 15.0905C729.546 22.1305 735.296 27.7757 736.863 29.1353L735.868 30.1297C735.413 30.5865 735.103 31.1681 734.977 31.8011C734.852 32.434 734.917 33.0899 735.164 33.6859C735.411 34.2819 735.83 34.7913 736.366 35.1498C736.903 35.5083 737.533 35.6998 738.178 35.7001H738.337C738.381 36.5332 738.743 37.3174 739.349 37.8907C739.955 38.464 740.759 38.7824 741.593 38.7801H741.707C741.752 39.6128 742.115 40.3964 742.721 40.9695C743.327 41.5425 744.129 41.8613 744.963 41.8601H745.245C745.28 42.4893 745.496 43.095 745.868 43.6038C746.239 44.1127 746.751 44.5029 747.339 44.7273C747.928 44.9517 748.57 45.0006 749.186 44.8681C749.802 44.7356 750.366 44.4275 750.811 43.9809L751.207 43.5849L751.462 43.8489C751.767 44.198 752.143 44.4782 752.565 44.6709C752.987 44.8636 753.445 44.9644 753.908 44.9665C754.731 44.9594 755.526 44.6706 756.161 44.1481C756.579 43.8123 756.913 43.3839 757.137 42.8967C757.361 42.4094 757.468 41.8768 757.45 41.3409C757.896 41.3659 758.342 41.2903 758.755 41.1197C759.168 40.9491 759.537 40.6879 759.835 40.3553C760.176 40.0112 760.438 39.5965 760.601 39.1403C760.765 38.6842 760.826 38.1977 760.781 37.7153H761.067C761.48 37.7165 761.888 37.6328 762.266 37.4693C762.645 37.3057 762.986 37.066 763.267 36.7649C763.635 36.4054 763.911 35.9639 764.075 35.4767C764.239 34.9895 764.285 34.4705 764.209 33.9621C765.116 33.9011 765.968 33.5038 766.598 32.8479C767.228 32.192 767.59 31.3247 767.614 30.4157C767.592 29.4714 767.275 28.5577 766.708 27.8021C769.33 25.5273 772.877 20.4981 770.73 14.8045ZM737.426 33.1877C737.227 32.9881 737.115 32.7174 737.115 32.4353C737.115 32.1532 737.227 31.8825 737.426 31.6829L741.76 27.3621C741.857 27.2571 741.975 27.1729 742.106 27.1144C742.236 27.0559 742.378 27.0244 742.521 27.0217C742.664 27.019 742.806 27.0453 742.939 27.0988C743.072 27.1524 743.192 27.2322 743.294 27.3334C743.395 27.4346 743.475 27.5553 743.528 27.6881C743.582 27.8209 743.608 27.9631 743.605 28.1063C743.603 28.2494 743.571 28.3906 743.513 28.5213C743.454 28.652 743.37 28.7695 743.265 28.8669L738.944 33.1877C738.845 33.2884 738.727 33.3684 738.597 33.423C738.466 33.4776 738.326 33.5057 738.185 33.5057C738.044 33.5057 737.904 33.4776 737.774 33.423C737.643 33.3684 737.525 33.2884 737.426 33.1877ZM740.84 36.2677C740.641 36.0681 740.529 35.7974 740.529 35.5153C740.529 35.2332 740.641 34.9625 740.84 34.7629L745.161 30.4421C745.259 30.3371 745.376 30.2529 745.507 30.1944C745.638 30.1359 745.779 30.1044 745.922 30.1017C746.065 30.099 746.207 30.1253 746.34 30.1788C746.473 30.2324 746.594 30.3122 746.695 30.4134C746.796 30.5146 746.876 30.6353 746.929 30.7681C746.983 30.9009 747.009 31.0431 747.006 31.1863C747.004 31.3294 746.972 31.4706 746.914 31.6013C746.855 31.732 746.771 31.8495 746.666 31.9469L742.345 36.2677C742.146 36.4677 741.876 36.5804 741.594 36.5812C741.312 36.5821 741.041 36.4709 740.84 36.2721V36.2677ZM744.211 39.3477C744.011 39.1481 743.9 38.8774 743.9 38.5953C743.9 38.3132 744.011 38.0425 744.211 37.8429L748.532 33.5221C748.734 33.3347 749 33.2329 749.276 33.2381C749.551 33.2432 749.814 33.3549 750.009 33.5497C750.204 33.7446 750.315 34.0073 750.32 34.2827C750.326 34.5582 750.224 34.8249 750.036 35.0269L745.72 39.3477C745.621 39.4471 745.504 39.5259 745.374 39.5797C745.245 39.6336 745.106 39.6612 744.965 39.6612C744.825 39.6612 744.686 39.6336 744.557 39.5797C744.427 39.5259 744.31 39.4471 744.211 39.3477ZM749.258 42.4277C749.056 42.6151 748.789 42.7169 748.514 42.7117C748.238 42.7066 747.975 42.5949 747.781 42.4001C747.586 42.2052 747.474 41.9425 747.469 41.667C747.464 41.3916 747.565 41.1249 747.753 40.9229L752.074 36.6021C752.171 36.4971 752.289 36.4129 752.419 36.3544C752.55 36.2959 752.691 36.2644 752.834 36.2617C752.977 36.259 753.12 36.2853 753.252 36.3388C753.385 36.3924 753.506 36.4722 753.607 36.5734C753.708 36.6746 753.788 36.7953 753.842 36.9281C753.895 37.0609 753.922 37.2031 753.919 37.3463C753.916 37.4894 753.885 37.6306 753.826 37.7613C753.768 37.892 753.683 38.0095 753.578 38.1069L749.258 42.4277ZM754.766 42.4277C754.652 42.5357 754.516 42.6195 754.369 42.6739C754.221 42.7284 754.063 42.7524 753.906 42.7446C753.749 42.7368 753.595 42.6973 753.453 42.6285C753.311 42.5597 753.185 42.4629 753.081 42.3441L752.76 42.0493L754.52 40.2893C754.784 40.5885 754.925 40.7645 754.995 40.8613C755.087 40.9812 755.154 41.1182 755.193 41.2643C755.231 41.4105 755.24 41.5628 755.218 41.7124C755.197 41.862 755.146 42.0058 755.069 42.1354C754.991 42.265 754.888 42.3779 754.766 42.4673V42.4277ZM765.128 31.2077L765.08 31.3089C764.969 31.4512 764.827 31.5671 764.666 31.6485C764.505 31.7299 764.328 31.7747 764.147 31.7797C763.623 31.7073 763.14 31.4536 762.783 31.0625C762.728 31.003 762.666 30.9499 762.598 30.9041L757.904 26.1873C757.697 25.9859 757.42 25.8737 757.131 25.8749C756.843 25.8761 756.566 25.9906 756.361 26.1938C756.156 26.3969 756.039 26.6724 756.036 26.9609C756.032 27.2494 756.142 27.5278 756.342 27.7361L761.314 32.7565C762.634 34.2481 761.718 35.2381 761.71 35.2469C760.966 36.0081 759.611 34.9961 759.395 34.8069L754.555 29.9009C754.454 29.7954 754.334 29.711 754.2 29.6526C754.066 29.5942 753.922 29.563 753.776 29.5608C753.63 29.5586 753.486 29.5855 753.35 29.6398C753.215 29.6942 753.091 29.7749 752.987 29.8774C752.884 29.9798 752.801 30.1019 752.745 30.2366C752.689 30.3712 752.66 30.5157 752.66 30.6616C752.66 30.8075 752.689 30.952 752.746 31.0865C752.802 31.2211 752.885 31.343 752.989 31.4453L757.855 36.3953C759.175 37.7989 758.33 38.7581 758.229 38.8681C757.578 39.5721 756.311 38.7669 755.897 38.4677C756.083 37.953 756.136 37.3998 756.051 36.8593C755.966 36.3188 755.747 35.8083 755.412 35.3751C755.078 34.9418 754.64 34.5998 754.139 34.3805C753.638 34.1612 753.089 34.0718 752.544 34.1205C752.506 33.2827 752.146 32.492 751.54 31.9127C750.933 31.3333 750.127 31.0099 749.288 31.0097H749.174C749.129 30.177 748.766 29.3934 748.16 28.8203C747.555 28.2473 746.752 27.9285 745.918 27.9297H745.76C745.726 27.2996 745.51 26.6929 745.138 26.1831C744.766 25.6734 744.254 25.2825 743.664 25.058C743.074 24.8335 742.432 24.7849 741.815 24.9182C741.199 25.0515 740.634 25.3609 740.189 25.8089L738.429 27.5689C737.413 26.7549 731.992 21.9809 734.425 15.9133C734.904 14.717 735.631 13.6356 736.558 12.74C737.485 11.8445 738.59 11.155 739.802 10.7169C745.082 8.8249 748.866 12.6309 749.706 13.5813L742.768 20.5157C742.608 20.6741 742.482 20.8627 742.396 21.0704C742.309 21.2781 742.265 21.5009 742.266 21.7257C742.266 21.9532 742.311 22.1786 742.398 22.3886C742.486 22.5986 742.615 22.789 742.776 22.9489C744.633 24.7925 746.71 25.6681 748.936 25.5449C752.602 25.3425 755.673 22.4957 757.12 20.8897L763.716 27.7757L763.782 27.8417C765.102 29.0253 765.419 29.8789 765.432 30.3893C765.442 30.7019 765.333 31.0066 765.128 31.2429V31.2077ZM765.238 26.1433L758.084 18.6633C757.959 18.5269 757.808 18.4175 757.639 18.3418C757.47 18.2661 757.288 18.2258 757.103 18.2233H757.05C756.858 18.2314 756.67 18.2804 756.499 18.3668C756.327 18.4533 756.176 18.5754 756.056 18.7249C755.466 19.4553 752.355 23.1029 748.835 23.2965C747.348 23.3757 745.988 22.8565 744.677 21.6685L753.803 12.5957L753.851 12.5429C753.895 12.4945 758.216 7.6589 764.006 10.5541C766.14 11.582 767.806 13.3785 768.67 15.5833C770.62 20.7489 766.62 24.9333 765.234 26.1829L765.238 26.1433Z" fill="#E6E6E6"/>
<path d="M790.082 17.4062L795.086 29.9453L800.16 17.4062H803.148L795.027 36.8594L787.094 17.4062H790.082ZM807.777 24.0859V35.5H805.141V24.0859H807.777ZM804.742 19.3398C804.742 18.8789 804.91 18.4805 805.246 18.1445C805.582 17.8086 805.984 17.6406 806.453 17.6406C806.93 17.6406 807.336 17.8086 807.672 18.1445C808.008 18.4727 808.176 18.875 808.176 19.3516C808.176 19.8281 808.008 20.2344 807.672 20.5703C807.344 20.9062 806.941 21.0742 806.465 21.0742C805.988 21.0742 805.582 20.9062 805.246 20.5703C804.91 20.2344 804.742 19.8242 804.742 19.3398ZM811.117 24.0859H813.754V25.1055C814.238 24.5977 814.668 24.25 815.043 24.0625C815.426 23.8672 815.879 23.7695 816.402 23.7695C817.098 23.7695 817.824 23.9961 818.582 24.4492L817.375 26.8633C816.875 26.5039 816.387 26.3242 815.91 26.3242C814.473 26.3242 813.754 27.4102 813.754 29.582V35.5H811.117V24.0859ZM823.68 26.5469V35.5H821.043V26.5469H819.918V24.0859H821.043V19.9023H823.68V24.0859H825.73V26.5469H823.68ZM830.16 24.0859V30.6367C830.16 32.5273 830.906 33.4727 832.398 33.4727C833.891 33.4727 834.637 32.5273 834.637 30.6367V24.0859H837.273V30.6953C837.273 31.6094 837.16 32.3984 836.934 33.0625C836.715 33.6562 836.336 34.1914 835.797 34.668C834.906 35.4414 833.773 35.8281 832.398 35.8281C831.031 35.8281 829.902 35.4414 829.012 34.668C828.465 34.1914 828.078 33.6562 827.852 33.0625C827.633 32.5312 827.523 31.7422 827.523 30.6953V24.0859H830.16ZM849.016 24.0859H851.664V35.5H849.016V34.3047C847.93 35.3203 846.762 35.8281 845.512 35.8281C843.934 35.8281 842.629 35.2578 841.598 34.1172C840.574 32.9531 840.062 31.5 840.062 29.7578C840.062 28.0469 840.574 26.6211 841.598 25.4805C842.621 24.3398 843.902 23.7695 845.441 23.7695C846.77 23.7695 847.961 24.3164 849.016 25.4102V24.0859ZM842.758 29.7578C842.758 30.8516 843.051 31.7422 843.637 32.4297C844.238 33.125 844.996 33.4727 845.91 33.4727C846.887 33.4727 847.676 33.1367 848.277 32.4648C848.879 31.7695 849.18 30.8867 849.18 29.8164C849.18 28.7461 848.879 27.8633 848.277 27.168C847.676 26.4883 846.895 26.1484 845.934 26.1484C845.027 26.1484 844.27 26.4922 843.66 27.1797C843.059 27.875 842.758 28.7344 842.758 29.7578ZM857.629 15.707V35.5H854.992V15.707H857.629ZM885.32 19.9727H879.016V24.3203H885.098V26.8867H879.016V35.5H876.285V17.4062H885.32V19.9727ZM887.758 24.0859H890.395V25.1055C890.879 24.5977 891.309 24.25 891.684 24.0625C892.066 23.8672 892.52 23.7695 893.043 23.7695C893.738 23.7695 894.465 23.9961 895.223 24.4492L894.016 26.8633C893.516 26.5039 893.027 26.3242 892.551 26.3242C891.113 26.3242 890.395 27.4102 890.395 29.582V35.5H887.758V24.0859ZM899.746 24.0859V35.5H897.109V24.0859H899.746ZM896.711 19.3398C896.711 18.8789 896.879 18.4805 897.215 18.1445C897.551 17.8086 897.953 17.6406 898.422 17.6406C898.898 17.6406 899.305 17.8086 899.641 18.1445C899.977 18.4727 900.145 18.875 900.145 19.3516C900.145 19.8281 899.977 20.2344 899.641 20.5703C899.312 20.9062 898.91 21.0742 898.434 21.0742C897.957 21.0742 897.551 20.9062 897.215 20.5703C896.879 20.2344 896.711 19.8242 896.711 19.3398ZM913.48 30.4141H905.301C905.371 31.3516 905.676 32.0977 906.215 32.6523C906.754 33.1992 907.445 33.4727 908.289 33.4727C908.945 33.4727 909.488 33.3164 909.918 33.0039C910.34 32.6914 910.82 32.1133 911.359 31.2695L913.586 32.5117C913.242 33.0977 912.879 33.6016 912.496 34.0234C912.113 34.4375 911.703 34.7812 911.266 35.0547C910.828 35.3203 910.355 35.5156 909.848 35.6406C909.34 35.7656 908.789 35.8281 908.195 35.8281C906.492 35.8281 905.125 35.2812 904.094 34.1875C903.062 33.0859 902.547 31.625 902.547 29.8047C902.547 28 903.047 26.5391 904.047 25.4219C905.055 24.3203 906.391 23.7695 908.055 23.7695C909.734 23.7695 911.062 24.3047 912.039 25.375C913.008 26.4375 913.492 27.9102 913.492 29.793L913.48 30.4141ZM910.773 28.2578C910.406 26.8516 909.52 26.1484 908.113 26.1484C907.793 26.1484 907.492 26.1992 907.211 26.3008C906.93 26.3945 906.672 26.5352 906.438 26.7227C906.211 26.9023 906.016 27.1211 905.852 27.3789C905.688 27.6367 905.562 27.9297 905.477 28.2578H910.773ZM916.375 24.0859H919.023V25.1406C919.945 24.2266 920.984 23.7695 922.141 23.7695C923.469 23.7695 924.504 24.1875 925.246 25.0234C925.887 25.7344 926.207 26.8945 926.207 28.5039V35.5H923.559V29.125C923.559 28 923.402 27.2227 923.09 26.793C922.785 26.3555 922.23 26.1367 921.426 26.1367C920.551 26.1367 919.93 26.4258 919.562 27.0039C919.203 27.5742 919.023 28.5703 919.023 29.9922V35.5H916.375V24.0859ZM937.961 15.707H940.609V35.5H937.961V34.3047C936.922 35.3203 935.746 35.8281 934.434 35.8281C932.871 35.8281 931.574 35.2578 930.543 34.1172C929.52 32.9531 929.008 31.5 929.008 29.7578C929.008 28.0547 929.52 26.6328 930.543 25.4922C931.559 24.3438 932.836 23.7695 934.375 23.7695C935.711 23.7695 936.906 24.3164 937.961 25.4102V15.707ZM931.703 29.7578C931.703 30.8516 931.996 31.7422 932.582 32.4297C933.184 33.125 933.941 33.4727 934.855 33.4727C935.832 33.4727 936.621 33.1367 937.223 32.4648C937.824 31.7695 938.125 30.8867 938.125 29.8164C938.125 28.7461 937.824 27.8633 937.223 27.168C936.621 26.4883 935.84 26.1484 934.879 26.1484C933.973 26.1484 933.215 26.4922 932.605 27.1797C932.004 27.875 931.703 28.7344 931.703 29.7578ZM950.57 26.0312L948.391 27.1914C948.047 26.4883 947.621 26.1367 947.113 26.1367C946.871 26.1367 946.664 26.2188 946.492 26.3828C946.32 26.5391 946.234 26.7422 946.234 26.9922C946.234 27.4297 946.742 27.8633 947.758 28.293C949.156 28.8945 950.098 29.4492 950.582 29.957C951.066 30.4648 951.309 31.1484 951.309 32.0078C951.309 33.1094 950.902 34.0312 950.09 34.7734C949.301 35.4766 948.348 35.8281 947.23 35.8281C945.316 35.8281 943.961 34.8945 943.164 33.0273L945.414 31.9844C945.727 32.5312 945.965 32.8789 946.129 33.0273C946.449 33.3242 946.832 33.4727 947.277 33.4727C948.168 33.4727 948.613 33.0664 948.613 32.2539C948.613 31.7852 948.27 31.3477 947.582 30.9414C947.316 30.8086 947.051 30.6797 946.785 30.5547C946.52 30.4297 946.25 30.3008 945.977 30.168C945.211 29.793 944.672 29.418 944.359 29.043C943.961 28.5664 943.762 27.9531 943.762 27.2031C943.762 26.2109 944.102 25.3906 944.781 24.7422C945.477 24.0938 946.32 23.7695 947.312 23.7695C948.773 23.7695 949.859 24.5234 950.57 26.0312Z" fill="white"/>
</svg>
